<svg width="800" height="800" viewBox="0 0 800 800" fill="none" xmlns="http://www.w3.org/2000/svg">
<path d="M53 328.206V270.533L162.346 114.545H238.889V267.726H266.274V328.302H238.889V371.073H168.346V328.302H53V328.206ZM173.765 193.313L124.607 267.726H173.765V193.313Z" fill="#222222"/>
<path d="M308.658 108.255C327.624 81.4506 357.428 68 398.07 68C438.712 68 468.613 81.4506 487.676 108.255C506.739 135.059 516.319 171.831 516.319 218.375C516.319 265.501 506.836 302.466 487.869 329.367C468.903 356.171 439.002 369.622 398.07 369.622C357.138 369.622 327.237 356.171 308.464 329.367C289.595 302.562 280.208 265.598 280.208 218.375C280.208 171.734 289.691 135.059 308.658 108.255ZM429.809 162.541C424.681 149.671 414.133 143.188 398.07 143.188C382.104 143.188 371.556 149.671 366.331 162.541C361.202 175.411 358.589 193.99 358.589 218.472C358.589 243.438 361.105 262.308 366.137 275.177C371.169 288.047 381.813 294.434 398.07 294.434C414.327 294.434 424.971 288.047 430.003 275.177C435.035 262.308 437.551 243.438 437.551 218.472C437.551 193.99 434.938 175.411 429.809 162.541Z" fill="#EF9700"/>
<path d="M533.06 328.206V270.533L642.406 114.545H718.948V267.726H746.333V328.302H718.948V371.073H648.405V328.302H533.06V328.206ZM653.824 193.313L604.667 267.726H653.824V193.313Z" fill="#222222"/>
<path d="M372.427 732.787C484.924 732.787 576.121 723.906 576.121 712.95C576.121 701.994 484.924 693.113 372.427 693.113C259.93 693.113 168.733 701.994 168.733 712.95C168.733 723.906 259.93 732.787 372.427 732.787Z" fill="#ECECEC"/>
<path d="M459.227 427.198L502.578 520.868" stroke="#19141E" stroke-width="16" stroke-linecap="round"/>
<path fill-rule="evenodd" clip-rule="evenodd" d="M374.362 447.906H408.037V420.811H374.362V447.906Z" fill="#19141E"/>
<path d="M296.175 530.642L305.464 428.553" stroke="#19141E" stroke-width="16" stroke-linecap="round"/>
<path d="M524.842 549.582C524.729 549.07 524.573 548.492 524.41 547.883C524.294 547.453 524.175 547.008 524.063 546.559L524.059 546.545L524.055 546.531C523.168 543.375 521.987 540.328 520.715 537.49L520.712 537.482C518.565 532.799 516.048 529.191 513.575 527.578L513.569 527.574L513.563 527.57C512.485 526.889 511.324 526.536 509.948 526.75C508.629 526.956 507.218 527.667 505.572 528.864C505.571 528.864 505.571 528.865 505.57 528.865L506.158 529.674C502.385 532.383 501.03 535.577 501.32 539.738C501.61 543.802 503.449 548.447 506.352 553.382C507.406 555.139 508.62 556.816 509.776 558.413C509.893 558.575 510.01 558.737 510.126 558.897C510.61 559.478 510.997 559.962 511.287 560.446M524.842 549.582L510.38 560.88C510.351 560.833 510.321 560.786 510.289 560.739L510.911 560.184L511.178 560.482L511.287 560.446M524.842 549.582L537.05 547.008C537.016 546.878 536.979 546.74 536.936 546.592L536.933 546.581C536.827 546.191 536.725 545.793 536.621 545.388C536.426 544.628 536.224 543.842 535.975 543.031C534.818 539.273 533.577 535.649 531.962 532.23L531.957 532.219C528.806 525.344 525.038 520.209 520.226 517.062C513.565 512.775 505.792 513.171 498.138 518.771L524.842 549.582ZM511.287 560.446L511.195 560.501L511.454 560.792C511.399 560.716 511.343 560.613 511.287 560.446ZM332.955 421.245L331.976 420.322L331.374 421.525L330.697 422.88C325.044 434.185 311.136 438.734 299.821 432.983L299.815 432.98L297.88 432.013C286.575 426.36 282.026 412.452 287.777 401.137L287.778 401.135L321.452 334.56L321.452 334.559C325.808 325.94 334.895 321.299 343.895 322.041L344.136 322.061L344.359 321.969C348.685 320.182 353.49 319.239 358.396 319.239H423.907C432.859 319.239 441.152 322.442 447.56 327.72L447.744 327.872L447.978 327.924C456.329 329.78 463.374 336.275 465.413 345.17L465.413 345.172L482.251 417.844L482.251 417.845C485.124 430.17 477.338 442.506 465.098 445.383C465.097 445.384 465.096 445.384 465.094 445.384L462.972 445.866L462.97 445.867C451.286 448.556 439.414 441.69 435.893 430.384L435.597 429.435L434.646 429.725C431.255 430.761 427.676 431.327 423.907 431.327H358.396C348.689 431.327 339.644 427.557 332.955 421.245ZM280.567 561.323L280.567 561.327C280.396 563.29 280.296 565.143 280.343 566.666L267.746 567.422C267.59 561.87 268.176 555.24 269.948 548.71C271.897 541.629 275.081 535.897 279.524 532.011C283.949 528.141 289.693 526.037 296.91 526.319L296.914 526.319C305.041 526.599 310.879 530.03 314.069 535.861C316.541 540.441 317.038 546.005 316.182 552.471C315.612 556.461 314.566 560.651 313.039 564.946C312.273 567.051 311.41 569.16 310.639 570.992L310.638 570.996C310.375 571.625 310.15 572.147 309.96 572.559L298.783 566.97C298.933 566.678 299.106 566.318 299.237 565.936C299.92 564.372 300.599 562.623 301.274 560.791L301.279 560.777L301.284 560.762C302.45 557.266 303.443 553.805 303.843 550.707C304.374 546.795 304.339 543.82 303.174 541.792C301.932 539.629 299.614 538.839 296.502 538.738C292.79 538.585 289.757 539.624 287.358 541.904C284.992 544.151 283.33 547.519 282.146 551.861L282.145 551.866C281.352 554.841 280.861 558.094 280.567 561.323ZM298.304 565.574C298.186 565.926 298.034 566.242 297.889 566.523L300.336 560.446C299.658 562.284 298.981 564.026 298.304 565.574Z" fill="#6CA1FF" stroke="#222222" stroke-width="2"/>
<path fill-rule="evenodd" clip-rule="evenodd" d="M391.974 394.975H424.1C430.487 394.975 435.712 389.749 435.712 383.363V364.493C435.712 358.107 430.487 352.881 424.1 352.881H391.974C385.587 352.881 380.362 358.107 380.362 364.493V383.363C380.362 389.749 385.587 394.975 391.974 394.975Z" fill="#19141E"/>
<path d="M320.909 334.528L320.91 334.526C326.688 322.97 340.9 318.325 352.46 324.2L352.463 324.202L354.398 325.169C365.954 330.947 370.599 345.159 364.724 356.719L364.723 356.72L331.048 423.295L331.047 423.297C325.27 434.853 311.058 439.497 299.498 433.623L299.495 433.621L297.56 432.653C286.004 426.876 281.359 412.664 287.234 401.104L287.235 401.103L320.909 334.528ZM463.277 446.354L463.275 446.354C451.501 449.064 439.541 442.279 435.762 431.006C440.799 429.371 445.437 426.735 449.401 423.375C449.026 427.104 450.692 430.866 454.127 432.947C458.91 435.896 465.022 434.372 467.876 429.785C470.832 425.094 469.301 418.882 464.615 416.03L464.615 416.029C462.209 414.569 459.447 414.27 456.938 414.879C460.775 408.838 463.017 401.638 463.017 394.007V356.655C463.017 345.288 458.131 335.123 450.367 328.002C457.966 330.445 464.182 336.717 466.094 345.058L466.094 345.059L482.931 417.731L482.931 417.732C485.868 430.331 478.005 442.933 465.404 445.87C465.404 445.871 465.403 445.871 465.403 445.871L463.277 446.354ZM505.633 553.155L505.637 553.161C506.899 555.2 508.163 557.048 509.429 558.704L509.439 558.721C509.802 559.264 510.199 559.86 510.61 560.281C510.638 560.321 510.666 560.358 510.693 560.392L500.601 569.403C500.525 569.311 500.444 569.212 500.359 569.108C499.908 568.557 499.323 567.842 498.617 567.007C498.527 566.883 498.437 566.759 498.346 566.635C496.88 564.621 495.361 562.534 494.012 560.196L494.009 560.19C490.065 553.554 487.49 546.856 487.014 540.282L487.013 540.281C486.349 531.454 489.756 523.589 497.551 517.885C505.346 512.181 513.345 511.741 520.208 516.159C525.13 519.378 528.949 524.606 532.121 531.527L532.121 531.528C533.756 535.085 535.102 538.739 536.16 542.393L536.162 542.401C536.415 543.222 536.622 544.03 536.819 544.798C536.923 545.199 537.023 545.59 537.125 545.965L537.127 545.971C537.221 546.301 537.292 546.584 537.352 546.826L537.356 546.842C537.362 546.863 537.367 546.885 537.372 546.906L524.166 549.691C524.135 549.55 524.101 549.392 524.067 549.219C523.911 548.442 523.694 547.662 523.47 546.855C523.408 546.634 523.346 546.411 523.285 546.186L523.283 546.178C522.405 543.154 521.235 540.036 519.969 537.211L519.968 537.21C517.827 532.442 515.359 529.044 513.012 527.513L513.004 527.508L512.996 527.503C511.958 526.88 510.92 526.568 509.697 526.761C508.504 526.949 507.193 527.608 505.574 528.786C503.635 530.178 502.289 531.716 501.472 533.466C500.654 535.217 500.381 537.144 500.531 539.289L500.531 539.289C500.829 543.464 502.71 548.283 505.633 553.155ZM313.062 400.496L313.062 400.496L313.054 400.494C307.761 398.967 302.261 401.921 300.632 407.214L300.632 407.214L300.629 407.222C299.103 412.515 302.056 418.016 307.349 419.644L307.349 419.644L307.358 419.647C312.651 421.174 318.151 418.22 319.78 412.927L319.78 412.927L319.782 412.918C321.309 407.625 318.356 402.125 313.062 400.496ZM281.065 561.465L281.065 561.467C280.876 563.645 280.776 565.662 280.864 567.233L267.321 568.045C267.307 567.964 267.287 567.876 267.254 567.788C267.072 562.141 267.652 555.359 269.466 548.675C271.432 541.53 274.657 535.701 279.195 531.732C283.723 527.77 289.595 525.63 296.929 525.916L296.932 525.916C305.204 526.201 311.22 529.707 314.508 535.719C317.051 540.428 317.541 546.113 316.678 552.636C316.102 556.663 315.047 560.887 313.509 565.211C312.74 567.328 311.873 569.448 311.1 571.283L311.099 571.285C310.734 572.162 310.432 572.852 310.191 573.33L298.104 567.286C298.135 567.226 298.17 567.16 298.207 567.089C298.381 566.761 298.609 566.33 298.771 565.851C299.451 564.295 300.129 562.55 300.805 560.715L300.808 560.708L300.81 560.701C301.973 557.211 302.954 553.787 303.347 550.738C303.879 546.823 303.813 544.004 302.741 542.138C301.63 540.203 299.539 539.434 296.482 539.335C292.885 539.186 289.99 540.189 287.702 542.363C285.431 544.521 283.801 547.789 282.629 552.089L282.628 552.092C281.844 555.031 281.357 558.254 281.065 561.465ZM310.399 573.993C310.69 573.509 311.077 572.638 311.561 571.477L310.399 573.993ZM351.327 350.508C352.955 345.21 349.899 339.61 344.604 338.08C339.307 336.453 333.707 339.508 332.177 344.804C330.549 350.101 333.604 355.701 338.9 357.231C344.197 358.858 349.797 355.803 351.327 350.508Z" fill="#41619A" stroke="#222222"/>
<path opacity="0.6018" fill-rule="evenodd" clip-rule="evenodd" d="M319.302 412.876C317.754 417.908 312.528 420.715 307.496 419.263C302.465 417.715 299.658 412.489 301.11 407.457C302.658 402.426 307.884 399.619 312.915 401.071C317.947 402.522 320.754 407.845 319.302 412.876ZM350.848 350.365C349.3 355.397 344.074 358.203 339.042 356.752C334.011 355.204 331.204 349.978 332.656 344.946C334.107 339.914 339.43 337.108 344.461 338.56C349.493 340.011 352.396 345.333 350.848 350.365ZM467.452 429.424C464.742 433.875 458.84 435.326 454.388 432.52C449.937 429.811 448.486 423.908 451.292 419.457C454.001 415.005 459.904 413.554 464.355 416.36C468.807 419.166 470.258 424.972 467.452 429.424Z" fill="#222222"/>
<path d="M458.162 248.954V181.411" stroke="#19141E" stroke-width="7"/>
<path fill-rule="evenodd" clip-rule="evenodd" d="M464.259 277.597H436.293V235.987H464.259C475.677 235.987 485.063 245.373 485.063 256.792C485.063 268.21 475.677 277.597 464.259 277.597Z" fill="#19141E"/>
<path d="M442.558 168.853L443.933 169.898L444.155 168.186C445.059 161.229 451.024 155.896 458.162 155.896C465.932 155.896 472.258 162.222 472.258 169.992C472.258 177.762 465.932 184.088 458.162 184.088C452.471 184.088 447.591 180.748 445.329 175.862L445.225 175.637L445.027 175.486L434.48 167.455L433.87 166.991L433.264 167.458L419.552 178.019L405.841 167.458L405.233 166.99L404.623 167.456L390.812 178.023L377.098 167.552L376.491 167.089L375.884 167.552L362.172 178.022L354.844 172.392L353.585 171.425L353.256 172.979C351.901 179.395 346.205 184.184 339.429 184.184C331.66 184.184 325.334 177.859 325.334 170.089C325.334 162.319 331.66 155.993 339.429 155.993C345.76 155.993 351.176 160.153 352.889 165.922L352.982 166.234L353.24 166.432L361.465 172.722L362.072 173.186L362.68 172.722L376.394 162.251L390.109 172.722L390.712 173.182L391.318 172.726L405.227 162.248L418.945 172.722L419.552 173.186L420.159 172.722L433.875 162.25L442.558 168.853ZM452.647 307.368H343.881C335.728 307.368 329.205 300.756 329.205 292.692V220.891C329.205 212.739 335.817 206.215 343.881 206.215H452.647C460.799 206.215 467.323 212.827 467.323 220.891V292.789C467.323 300.845 460.807 307.368 452.647 307.368ZM442.583 321.593H354.041C350.635 321.593 347.977 318.857 347.977 315.529C347.977 312.211 350.723 309.465 354.041 309.465H442.583C445.989 309.465 448.647 312.202 448.647 315.529C448.647 318.848 445.901 321.593 442.583 321.593Z" fill="#6CA1FF" stroke="#222222" stroke-width="2"/>
<path opacity="0.4044" d="M376.491 168.25L362.17 179.282L354.235 173.282L353.848 165.638L362.17 172.024L376.491 161.09L390.813 172.024L405.231 160.993L419.552 171.927L433.874 160.993L443.067 168.347L444.615 176.475L433.874 168.347L419.552 179.282L405.231 168.25L390.813 179.282L376.491 168.25Z" fill="#222222"/>
<path opacity="0.3956" fill-rule="evenodd" clip-rule="evenodd" d="M442.583 322.593H354.041C350.074 322.593 346.977 319.4 346.977 315.529C346.977 311.659 350.171 308.465 354.041 308.465H442.583C446.55 308.465 449.647 311.659 449.647 315.529C449.647 319.4 446.453 322.593 442.583 322.593Z" fill="#222222"/>
<path fill-rule="evenodd" clip-rule="evenodd" d="M323.173 277.597H351.138V235.987H323.173C311.754 235.987 302.368 245.373 302.368 256.792C302.368 268.21 311.754 277.597 323.173 277.597Z" fill="#19141E"/>
<path d="M339.526 248.954V184.507" stroke="#19141E" stroke-width="7"/>
<path d="M488.063 280.79C488.531 280.965 488.531 280.965 488.531 280.965L488.531 280.965L488.532 280.965L488.532 280.964L488.533 280.961L488.536 280.952L488.547 280.921C488.557 280.895 488.57 280.857 488.585 280.81C488.616 280.714 488.658 280.579 488.703 280.412C488.793 280.079 488.896 279.616 488.948 279.098L488.95 279.073V279.048C488.95 278.762 488.952 278.64 489.021 278.432L489.027 278.414L489.032 278.395C489.504 276.507 490.515 273.84 492.587 271.651C494.646 269.476 497.78 267.743 502.578 267.743C507.99 267.743 514.413 270.626 519.391 274.659C521.874 276.67 523.973 278.948 525.394 281.262C526.818 283.58 527.54 285.895 527.337 287.999C527.021 291.066 529.136 293.816 532.1 294.345C534.721 294.822 537.46 295.789 539.328 297.599C541.163 299.378 542.215 302.027 541.377 306.038C540.737 308.925 542.458 311.563 545.067 312.607L545.067 312.607L545.079 312.611C547.637 313.559 550.585 315.229 552.611 318.058C554.626 320.871 555.77 324.888 554.632 330.624C554.42 331.687 554.527 332.742 554.842 333.686L554.842 333.686L554.845 333.695C555.611 335.851 556.89 340.295 556.559 344.593C556.394 346.736 555.832 348.814 554.632 350.553C553.44 352.282 551.595 353.71 548.798 354.527C547.492 354.857 546.335 355.821 545.606 356.965C544.358 358.885 542.111 362.061 539.049 364.849C535.983 367.641 532.139 370.007 527.696 370.381L527.597 370.39L527.509 370.435C522.217 373.153 517.603 373.768 513.602 372.73C509.598 371.691 506.131 368.975 503.177 364.878L503.17 364.868L503.162 364.858C501.9 363.28 500.003 362.437 498.004 362.542L497.997 362.543C493.317 362.85 490.475 361.651 488.571 359.858C486.639 358.039 485.612 355.558 484.67 353.147C484.628 353.04 484.587 352.932 484.545 352.825C484.124 351.745 483.71 350.681 483.232 349.746C482.705 348.716 482.078 347.795 481.229 347.145C479.473 345.803 476.995 345.774 473.143 347.59C459.683 353.884 444.87 361.532 437.513 365.405C435.139 366.635 432.252 365.753 431.028 363.392L431.027 363.392C429.885 361.194 430.596 358.386 432.687 357.079L432.69 357.077C436.293 354.791 442.275 350.918 450.704 345.462C454.054 343.293 457.79 340.874 461.917 338.205L461.918 338.205C465.881 335.628 467.678 333.432 467.948 331.193C468.216 328.973 466.95 326.903 465.393 324.7C465.119 324.312 464.834 323.917 464.541 323.512C461.449 319.233 457.548 313.835 458.37 304.835C458.696 301.483 460.305 298.526 462.311 296.069C464.316 293.613 466.695 291.684 468.513 290.393C470.191 289.237 471.154 287.433 471.048 285.408L471.048 285.408L471.047 285.399C470.956 284.123 471.138 282.594 472.129 281.062L472.129 281.062L472.134 281.055C472.659 280.214 472.982 279.255 472.984 278.185C473.031 276.665 473.469 275.141 474.543 274.067C475.605 273.005 477.376 272.298 480.274 272.579L480.274 272.579L480.281 272.579C483.733 272.863 485.652 273.895 486.701 275.053C487.735 276.195 487.988 277.531 487.952 278.595C487.81 279.216 487.715 279.743 487.654 280.118C487.623 280.31 487.601 280.462 487.587 280.568C487.58 280.62 487.575 280.661 487.572 280.689L487.568 280.722L487.567 280.731L487.566 280.733L487.566 280.734L487.566 280.735L487.566 280.735L488.063 280.79ZM488.063 280.79L488.531 280.965L487.566 280.735L488.063 280.79Z" fill="#B5B8BC" stroke="#828282"/>
<path fill-rule="evenodd" clip-rule="evenodd" d="M488.353 300.24C485.741 301.014 482.935 300.53 480.999 298.789C480.515 298.401 480.128 297.918 479.838 297.337C479.644 297.047 479.451 296.756 479.354 296.369C478.096 293.466 478.967 290.08 481.483 287.757C481.483 287.757 486.225 285.725 488.16 287.66C490.095 289.596 496.385 297.24 488.353 300.24Z" fill="#D7DADD"/>
<path fill-rule="evenodd" clip-rule="evenodd" d="M474.709 354.913C476.741 354.139 479.064 355.204 479.838 357.236C480.612 359.268 479.548 361.59 477.516 362.364C475.484 363.138 473.161 362.074 472.387 360.042C471.613 358.01 472.677 355.687 474.709 354.913Z" fill="#D7DADD"/>
<path fill-rule="evenodd" clip-rule="evenodd" d="M461.259 329.077C462.13 328.786 463.097 329.173 463.388 330.044C463.678 330.915 463.291 331.883 462.42 332.173C461.549 332.463 460.581 332.076 460.291 331.205C459.904 330.334 460.388 329.464 461.259 329.077Z" fill="#D7DADD"/>
<path fill-rule="evenodd" clip-rule="evenodd" d="M462.033 274.113C463.968 273.339 466.194 274.403 466.968 276.339C467.742 278.274 466.678 280.5 464.742 281.274C462.807 282.048 460.581 280.984 459.807 279.048C459.13 277.113 460.098 274.887 462.033 274.113Z" fill="#D7DADD"/>
<path fill-rule="evenodd" clip-rule="evenodd" d="M474.709 354.913C476.741 354.139 479.064 355.204 479.838 357.236C480.612 359.268 479.548 361.59 477.516 362.364C475.483 363.138 473.161 362.074 472.387 360.042C471.613 358.01 472.677 355.687 474.709 354.913Z" fill="#D7DADD"/>
<path fill-rule="evenodd" clip-rule="evenodd" d="M461.259 329.077C462.13 328.786 463.097 329.173 463.388 330.044C463.678 330.915 463.291 331.883 462.42 332.173C461.549 332.463 460.581 332.076 460.291 331.205C459.904 330.334 460.388 329.464 461.259 329.077Z" fill="#D7DADD"/>
<path fill-rule="evenodd" clip-rule="evenodd" d="M462.033 274.113C463.968 273.339 466.194 274.403 466.968 276.339C467.742 278.274 466.678 280.5 464.742 281.274C462.807 282.048 460.581 280.984 459.807 279.048C459.13 277.113 460.098 274.887 462.033 274.113Z" fill="#D7DADD"/>
<path fill-rule="evenodd" clip-rule="evenodd" d="M455.162 262.598C455.162 274.694 447.324 284.467 437.648 284.467C427.971 284.467 420.133 274.694 420.133 262.598C420.133 250.502 427.971 240.729 437.648 240.729C447.324 240.729 455.162 250.502 455.162 262.598Z" fill="#19141E"/>
<path fill-rule="evenodd" clip-rule="evenodd" d="M446.937 262.598C446.937 274.694 439.099 284.467 429.422 284.467C419.746 284.467 411.908 274.694 411.908 262.598C411.908 250.502 419.746 240.729 429.422 240.729C439.099 240.729 446.937 250.502 446.937 262.598Z" fill="white"/>
<path d="M427.003 250.986H419.843V258.147H427.003V250.986Z" fill="#19141E"/>
<path d="M433.68 258.147H426.52V265.307H433.68V258.147Z" fill="#19141E"/>
<path d="M440.357 265.404H433.196V272.565H440.357V265.404Z" fill="#19141E"/>
<path d="M433.265 258.2L440.425 258.2L440.425 251.039L433.265 251.039L433.265 258.2Z" fill="#19141E"/>
<path d="M426.572 265.437L433.732 265.437L433.732 258.277L426.572 258.277L426.572 265.437Z" fill="#19141E"/>
<path d="M419.879 272.578L427.039 272.578L427.039 265.417L419.879 265.417L419.879 272.578Z" fill="#19141E"/>
<path fill-rule="evenodd" clip-rule="evenodd" d="M402.908 262.598C402.908 274.694 395.07 284.467 385.394 284.467C375.717 284.467 367.879 274.694 367.879 262.598C367.879 250.502 375.717 240.729 385.394 240.729C395.07 240.729 402.908 250.502 402.908 262.598Z" fill="#19141E"/>
<path fill-rule="evenodd" clip-rule="evenodd" d="M394.683 262.598C394.683 274.694 386.845 284.467 377.168 284.467C367.492 284.467 359.654 274.694 359.654 262.598C359.654 250.502 367.492 240.729 377.168 240.729C386.845 240.729 394.683 250.502 394.683 262.598Z" fill="white"/>
<path fill-rule="evenodd" clip-rule="evenodd" d="M387.426 262.598C387.426 267.339 384.329 271.21 380.555 271.21C376.781 271.21 373.685 267.339 373.685 262.598C373.685 257.856 376.781 253.986 380.555 253.986C384.329 253.986 387.426 257.856 387.426 262.598Z" fill="#19141E"/>
<path d="M391.296 291.531H423.229" stroke="#222222" stroke-width="2" stroke-miterlimit="10" stroke-linecap="round"/>
<path d="M421.294 579.122L414.327 642.891" stroke="#19141E" stroke-width="12.5705" stroke-linecap="round"/>
<path d="M367.105 579.122L360.138 642.891" stroke="#19141E" stroke-width="12.5705" stroke-linecap="round"/>
<path d="M411.424 464.743L421.004 570.413" stroke="#19141E" stroke-width="12.5705" stroke-linecap="round"/>
<path d="M361.976 463.969C361.976 460.582 364.686 457.873 368.072 457.873C371.459 457.873 374.169 460.582 374.169 463.969L373.685 569.445C373.685 572.832 370.975 575.541 367.589 575.541C364.202 575.541 361.492 572.832 361.492 569.445L361.976 463.969Z" fill="#19141E"/>
<path d="M360.901 471.671C357.963 468.785 356.106 464.815 356.106 460.389C356.106 451.748 363.112 444.642 371.761 444.455L409.682 444.358C409.682 444.358 409.683 444.358 409.683 444.358C418.331 444.359 425.519 451.466 425.519 460.099C425.519 468.747 418.412 475.936 409.779 475.936L409.776 475.936L375.079 476.03L375.169 463.977V463.969C375.169 460.03 372.012 456.873 368.072 456.873C364.135 456.873 360.979 460.027 360.976 463.964L360.901 471.671ZM430.073 687.005L429.978 687.885L430.839 688.087C439.88 690.209 446.615 698.329 446.615 708.015V713.401H391.587H387.813H333.088L333.65 708.026L333.65 708.022L335.972 686.641L334.978 686.533L335.972 686.641L343.713 615.326C343.713 615.326 343.713 615.325 343.714 615.325C344.039 612.399 346.73 610.27 349.673 610.597L349.677 610.597L376.768 613.5C376.768 613.5 376.769 613.5 376.77 613.5C379.695 613.827 381.824 616.517 381.497 619.46L381.496 619.462L374.142 687.005L374.046 687.891L374.915 688.088C380.998 689.471 385.977 693.525 388.654 699.064L390.163 702.184L390.548 698.74L391.903 686.644L391.903 686.641L399.645 615.326C399.645 615.326 399.645 615.326 399.645 615.326C399.97 612.4 402.661 610.27 405.604 610.597L405.608 610.597L432.699 613.5C432.7 613.5 432.7 613.5 432.701 613.5C435.626 613.827 437.755 616.517 437.428 619.46L437.428 619.462L430.073 687.005ZM380.136 573.703C380.136 581.569 373.81 587.895 365.944 587.895C358.077 587.895 351.751 581.569 351.751 573.703C351.751 565.836 358.077 559.51 365.944 559.51C373.81 559.51 380.136 565.836 380.136 573.703ZM436.067 573.703C436.067 581.569 429.741 587.895 421.875 587.895C414.008 587.895 407.682 581.569 407.682 573.703C407.682 565.836 414.008 559.51 421.875 559.51C429.741 559.51 436.067 565.836 436.067 573.703Z" fill="#6CA1FF" stroke="#222222" stroke-width="2"/>
<path opacity="0.3972" fill-rule="evenodd" clip-rule="evenodd" d="M391.587 707.918C391.587 704.628 390.813 701.435 389.458 698.629L390.813 686.533L398.554 615.216C398.941 611.732 402.037 609.216 405.618 609.603L432.712 612.506C436.196 612.893 438.712 615.99 438.325 619.57L430.971 687.113C440.454 689.339 447.518 697.758 447.518 707.918V714.401H331.785L332.462 707.918H391.587V707.918Z" fill="#222222"/>
<path opacity="0.4012" fill-rule="evenodd" clip-rule="evenodd" d="M437.067 573.703C437.067 582.121 430.293 588.895 421.875 588.895C413.456 588.895 406.682 582.121 406.682 573.703C406.682 565.284 413.456 558.51 421.875 558.51C430.293 558.51 437.067 565.284 437.067 573.703Z" fill="#222222"/>
<path opacity="0.5967" fill-rule="evenodd" clip-rule="evenodd" d="M355.88 623.925C355.88 626.344 353.944 628.279 351.525 628.279C349.106 628.279 347.171 626.344 347.171 623.925C347.171 621.505 349.106 619.57 351.525 619.57C353.944 619.57 355.88 621.505 355.88 623.925ZM354.332 638.246C354.332 640.665 352.396 642.601 349.977 642.601C347.558 642.601 345.622 640.665 345.622 638.246C345.622 635.827 347.558 633.892 349.977 633.892C352.396 633.892 354.332 635.827 354.332 638.246Z" fill="#222222"/>
<path opacity="0.396" fill-rule="evenodd" clip-rule="evenodd" d="M351.332 692.532C351.332 695.726 348.719 698.338 345.526 698.338C342.332 698.338 339.72 695.726 339.72 692.532C339.72 689.339 342.332 686.726 345.526 686.726C348.719 686.726 351.332 689.339 351.332 692.532Z" fill="#222222"/>
<path d="M389.071 371.267V372.912H392.167V374.944H389.071V376.686H392.651V378.911H386.361V369.138H392.651V371.364H389.071V371.267Z" fill="white"/>
<path d="M398.941 378.911L397.006 375.331H396.715V378.911H394.006V369.138H398.264C399.038 369.138 399.715 369.235 400.296 369.525C400.876 369.815 401.263 370.202 401.554 370.686C401.844 371.17 401.941 371.654 401.941 372.331C401.941 373.009 401.747 373.589 401.36 374.073C400.973 374.557 400.489 374.944 399.715 375.137L401.941 379.008H398.941V378.911ZM396.715 373.396H398.07C398.457 373.396 398.747 373.299 398.941 373.105C399.135 372.912 399.231 372.718 399.231 372.331C399.231 372.041 399.135 371.751 398.941 371.557C398.747 371.364 398.457 371.267 398.07 371.267H396.715V373.396Z" fill="white"/>
<path d="M408.134 378.911L406.199 375.331H405.908V378.911H403.199V369.138H407.456C408.231 369.138 408.908 369.235 409.489 369.525C410.069 369.815 410.456 370.202 410.747 370.686C411.037 371.17 411.134 371.654 411.134 372.331C411.134 373.009 410.94 373.589 410.553 374.073C410.166 374.557 409.682 374.944 408.908 375.137L411.134 379.008H408.134V378.911ZM405.908 373.396H407.263C407.65 373.396 407.94 373.299 408.134 373.105C408.327 372.912 408.424 372.718 408.424 372.331C408.424 372.041 408.327 371.751 408.134 371.557C407.94 371.364 407.65 371.267 407.263 371.267H405.908V373.396Z" fill="white"/>
<path d="M414.52 378.331C413.746 377.944 413.166 377.266 412.682 376.492C412.198 375.718 412.005 374.847 412.005 373.88C412.005 372.912 412.198 372.041 412.682 371.267C413.166 370.493 413.746 369.912 414.52 369.525C415.295 369.138 416.165 368.848 417.036 368.848C418.004 368.848 418.778 369.041 419.552 369.525C420.326 369.912 420.907 370.589 421.391 371.267C421.875 372.041 422.068 372.912 422.068 373.88C422.068 374.847 421.875 375.718 421.391 376.492C420.907 377.266 420.326 377.847 419.552 378.331C418.778 378.718 417.907 379.008 417.036 379.008C416.165 379.008 415.295 378.815 414.52 378.331ZM418.778 375.815C419.165 375.331 419.359 374.75 419.359 373.976C419.359 373.202 419.165 372.622 418.778 372.138C418.391 371.654 417.811 371.46 417.133 371.46C416.456 371.46 415.875 371.654 415.488 372.138C415.101 372.622 414.908 373.202 414.908 373.976C414.908 374.75 415.101 375.331 415.488 375.815C415.875 376.299 416.456 376.492 417.133 376.492C417.811 376.492 418.391 376.202 418.778 375.815Z" fill="white"/>
<path d="M428.358 378.911L426.423 375.331H426.132V378.911H423.423V369.138H427.681C428.455 369.138 429.132 369.235 429.713 369.525C430.293 369.815 430.68 370.202 430.971 370.686C431.261 371.17 431.358 371.654 431.358 372.331C431.358 373.009 431.164 373.589 430.777 374.073C430.39 374.557 429.906 374.944 429.132 375.137L431.358 379.008H428.358V378.911ZM426.036 373.396H427.39C427.777 373.396 428.068 373.299 428.261 373.105C428.455 372.912 428.552 372.718 428.552 372.331C428.552 372.041 428.455 371.751 428.261 371.557C428.068 371.364 427.777 371.267 427.39 371.267H426.036V373.396Z" fill="white"/>
<circle cx="541" cy="323" r="9" fill="#D7DADD"/>
<ellipse cx="512.733" cy="298.384" rx="8" ry="18" transform="rotate(-34.1956 512.733 298.384)" fill="#D7DADD"/>
</svg>
