<svg width="40" height="39" viewBox="0 0 40 39" fill="none" xmlns="http://www.w3.org/2000/svg">
<path fill-rule="evenodd" clip-rule="evenodd" d="M20.0149 2C10.0531 2 2 10.0208 2 19.9436C2 27.8755 7.15991 34.5896 14.3181 36.9659C15.213 37.1446 15.5409 36.5799 15.5409 36.1048C15.5409 35.6888 15.5114 34.2629 15.5114 32.7773C10.5 33.847 9.45649 30.6383 9.45649 30.6383C8.65114 28.5587 7.45786 28.0242 7.45786 28.0242C5.81766 26.925 7.57734 26.925 7.57734 26.925C9.39675 27.0439 10.3514 28.7669 10.3514 28.7669C11.9618 31.4998 14.5567 30.7276 15.6006 30.2522C15.7496 29.0935 16.2271 28.2915 16.7341 27.8459C12.7373 27.4299 8.53203 25.8852 8.53203 18.9928C8.53203 17.0321 9.24741 15.4279 10.3809 14.1803C10.2021 13.7348 9.57559 11.8926 10.5602 9.4269C10.5602 9.4269 12.0812 8.95148 15.511 11.2688C16.9794 10.876 18.4937 10.6762 20.0149 10.6745C21.536 10.6745 23.0866 10.8827 24.5184 11.2688C27.9485 8.95148 29.4696 9.4269 29.4696 9.4269C30.4542 11.8926 29.8273 13.7348 29.6485 14.1803C30.8119 15.4279 31.4978 17.0321 31.4978 18.9928C31.4978 25.8852 27.2925 27.4001 23.2658 27.8459C23.9222 28.4103 24.4886 29.4796 24.4886 31.1731C24.4886 33.5793 24.4591 35.5105 24.4591 36.1044C24.4591 36.5799 24.7873 37.1446 25.6818 36.9663C32.84 34.5892 37.9999 27.8755 37.9999 19.9436C38.0294 10.0208 29.9468 2 20.0149 2Z" fill="white"/>
</svg>
