<svg width="40" height="40" viewBox="0 0 40 40" fill="none" xmlns="http://www.w3.org/2000/svg">
<path d="M14.7032 29.7664C14.7032 29.8987 14.5548 30.0046 14.3677 30.0046C14.1548 30.0244 14.0065 29.9185 14.0065 29.7664C14.0065 29.634 14.1548 29.5281 14.3419 29.5281C14.5355 29.5083 14.7032 29.6142 14.7032 29.7664ZM12.6968 29.4686C12.6516 29.6009 12.7806 29.7531 12.9742 29.7928C13.1419 29.859 13.3355 29.7928 13.3742 29.6605C13.4129 29.5281 13.2903 29.376 13.0968 29.3164C12.929 29.2701 12.7419 29.3362 12.6968 29.4686ZM15.5484 29.3561C15.3613 29.4024 15.2323 29.5281 15.2516 29.6803C15.271 29.8127 15.4387 29.8987 15.6323 29.8524C15.8194 29.8061 15.9484 29.6803 15.929 29.548C15.9097 29.4223 15.7355 29.3363 15.5484 29.3561ZM19.7935 4C10.8452 4 4 10.9676 4 20.1453C4 27.4835 8.50323 33.763 14.9355 35.973C15.7613 36.1252 16.0516 35.6025 16.0516 35.1724C16.0516 34.7621 16.0323 32.4991 16.0323 31.1096C16.0323 31.1096 11.5161 32.1021 10.5677 29.1377C10.5677 29.1377 9.83226 27.2122 8.77419 26.7159C8.77419 26.7159 7.29677 25.6771 8.87742 25.6969C8.87742 25.6969 10.4839 25.8293 11.3677 27.4041C12.7806 29.9582 15.1484 29.2238 16.071 28.787C16.2194 27.7283 16.6387 26.9939 17.1032 26.5571C13.4968 26.1469 9.85806 25.6109 9.85806 19.2454C9.85806 17.4258 10.3484 16.5126 11.3806 15.348C11.2129 14.9179 10.6645 13.1446 11.5484 10.8551C12.8968 10.425 16 12.6417 16 12.6417C17.2903 12.2712 18.6774 12.0793 20.0516 12.0793C21.4258 12.0793 22.8129 12.2712 24.1032 12.6417C24.1032 12.6417 27.2065 10.4184 28.5548 10.8551C29.4387 13.1512 28.8903 14.9179 28.7226 15.348C29.7548 16.5192 30.3871 17.4324 30.3871 19.2454C30.3871 25.6308 26.5871 26.1403 22.9806 26.5571C23.5742 27.0799 24.0774 28.0724 24.0774 29.6274C24.0774 31.8573 24.0581 34.6166 24.0581 35.1592C24.0581 35.5893 24.3548 36.112 25.1742 35.9598C31.6258 33.763 36 27.4835 36 20.1453C36 10.9676 28.7419 4 19.7935 4ZM10.271 26.8218C10.1871 26.888 10.2065 27.0402 10.3161 27.1659C10.4194 27.2718 10.5677 27.3181 10.6516 27.2321C10.7355 27.1659 10.7161 27.0137 10.6065 26.888C10.5032 26.7821 10.3548 26.7358 10.271 26.8218ZM9.57419 26.2858C9.52903 26.3719 9.59355 26.4777 9.72258 26.5439C9.82581 26.6101 9.95484 26.5902 10 26.4976C10.0452 26.4116 9.98064 26.3057 9.85161 26.2395C9.72258 26.1998 9.61935 26.2197 9.57419 26.2858ZM11.6645 28.6415C11.5613 28.7275 11.6 28.926 11.7484 29.0517C11.8968 29.2039 12.0839 29.2238 12.1677 29.1179C12.2516 29.0319 12.2129 28.8334 12.0839 28.7076C11.9419 28.5555 11.7484 28.5356 11.6645 28.6415ZM10.929 27.6688C10.8258 27.735 10.8258 27.907 10.929 28.0592C11.0323 28.2114 11.2065 28.2775 11.2903 28.2114C11.3935 28.1254 11.3935 27.9533 11.2903 27.8011C11.2 27.6489 11.0323 27.5828 10.929 27.6688Z" fill="black"/>
</svg>
