<svg width="40" height="40" viewBox="0 0 40 40" fill="none" xmlns="http://www.w3.org/2000/svg">
<path d="M11.7165 35H5.49554V14.971H11.7165V35ZM8.60268 12.2388C6.61384 12.2388 5 10.5915 5 8.60268C5 7.64719 5.37957 6.73083 6.0552 6.0552C6.73083 5.37957 7.64719 5 8.60268 5C9.55817 5 10.4745 5.37957 11.1502 6.0552C11.8258 6.73083 12.2054 7.64719 12.2054 8.60268C12.2054 10.5915 10.5915 12.2388 8.60268 12.2388ZM34.9933 35H28.7857V25.25C28.7857 22.9263 28.7388 19.9464 25.5513 19.9464C22.317 19.9464 21.8214 22.471 21.8214 25.0826V35H15.6071V14.971H21.5737V17.7031H21.6607C22.4911 16.1295 24.5201 14.4687 27.5469 14.4687C33.8415 14.4687 35 18.6138 35 23.9978V35H34.9933Z" fill="currentColor"/>
</svg>
