<svg width="40" height="40" viewBox="0 0 40 40" fill="none" xmlns="http://www.w3.org/2000/svg">
<path d="M7.375 9.375C6.77344 9.375 6.28125 9.88125 6.28125 10.5V12.0539L18.0732 22.0102C19.4883 23.2055 21.5186 23.2055 22.9336 22.0102L34.7188 12.0539V10.5C34.7188 9.88125 34.2266 9.375 33.625 9.375H7.375ZM6.28125 16.4203V28.5C6.28125 29.1188 6.77344 29.625 7.375 29.625H33.625C34.2266 29.625 34.7188 29.1188 34.7188 28.5V16.4203L25.0117 24.6187C22.3867 26.8336 18.6064 26.8336 15.9883 24.6187L6.28125 16.4203ZM3 10.5C3 8.01797 4.96191 6 7.375 6H33.625C36.0381 6 38 8.01797 38 10.5V28.5C38 30.982 36.0381 33 33.625 33H7.375C4.96191 33 3 30.982 3 28.5V10.5Z" fill="currentColor"/>
</svg>
