<svg width="124" height="124" viewBox="0 0 124 124" fill="none" xmlns="http://www.w3.org/2000/svg">
<path d="M62 124C96.2417 124 124 96.2417 124 62C124 27.7583 96.2417 0 62 0C27.7583 0 0 27.7583 0 62C0 96.2417 27.7583 124 62 124Z" fill="#EF9700"/>
<path d="M92.2561 90.644H31.248C27.652 90.644 24.8 87.792 24.8 84.196V39.928C24.8 36.332 27.652 33.48 31.248 33.48H92.2561C95.8521 33.48 98.704 36.332 98.704 39.928V84.196C98.704 87.668 95.8521 90.644 92.2561 90.644Z" fill="#F3ECEB" stroke="#222222" stroke-width="2" stroke-miterlimit="10"/>
<path fill-rule="evenodd" clip-rule="evenodd" d="M24.8 44.0298L59.2383 61.9377C60.6601 62.6771 62.3516 62.6839 63.7793 61.956L98.704 44.1513V39.928C98.704 36.332 95.8521 33.48 92.2561 33.48H31.248C27.652 33.48 24.8 36.332 24.8 39.928V44.0298Z" fill="#00BFFF" stroke="#222222" stroke-width="2" stroke-miterlimit="10"/>
</svg>
