<svg width="56" height="56" viewBox="0 0 56 56" fill="none" xmlns="http://www.w3.org/2000/svg">
<path fill-rule="evenodd" clip-rule="evenodd" d="M12.4814 9.79297C12.0973 9.79297 11.4888 9.8918 10.9907 10.3951C10.496 10.8951 10.4023 11.4994 10.4023 11.8754V21.6278C10.4023 22.1387 10.6038 22.5951 10.8625 22.9219C11.1643 23.3031 11.7136 23.7103 12.4814 23.7103H42.0977V41.3009L31.8382 33.8036C31.6423 33.6236 31.3959 33.4414 31.0865 33.3025C30.7034 33.1304 30.3157 33.0658 29.9446 33.0658H19.9644C18.9979 33.0658 18.2144 33.8493 18.2144 34.8158C18.2144 35.7823 18.9979 36.5658 19.9644 36.5658H29.6861L42.195 45.707C42.9174 46.3213 43.8299 46.2746 44.4449 45.9639C44.9798 45.6937 45.5977 45.0616 45.5977 44.1249V22.2928C45.5977 21.5389 45.2058 20.9908 44.8245 20.6825C44.4996 20.4199 44.0394 20.2103 43.5187 20.2103H13.9023V13.293H43.738C44.7045 13.293 45.488 12.5095 45.488 11.543C45.488 10.5765 44.7045 9.79297 43.738 9.79297H12.4814ZM12.4814 26.5272C11.9606 26.5272 11.5004 26.7368 11.1756 26.9994C10.7942 27.3077 10.4023 27.8558 10.4023 28.6097V44.1249C10.4023 44.6357 10.6038 45.0921 10.8625 45.4189C11.1643 45.8001 11.7136 46.2073 12.4814 46.2073H34.4749C35.4414 46.2073 36.2249 45.4238 36.2249 44.4573C36.2249 43.4908 35.4414 42.7073 34.4749 42.7073H13.9023V30.0272H28.7213C29.6878 30.0272 30.4713 29.2437 30.4713 28.2772C30.4713 27.3107 29.6878 26.5272 28.7213 26.5272H12.4814Z" fill="#91B5FD"/>
</svg>
